# xmcd
#
# Track frame offsets: 
#        150
#        8455
#        29678
#        58949
#        75504
#        98654
#        100229
#        115184
#        134006
#        161702
#        185577
#        209030
#        230434
#        246749
#        268968
#        289900
#
# Disc length: 4150 seconds
#
# Revision: 1
# Processed by: cddbd v1.5.1PL2 Copyright (c) Steve Scherf et al.
# Submitted via: ExactAudioCopy v0.90a11
#
DISCID=f2103410
DTITLE=Johnny 'Guitar' Watson - Superman Lover - The Ultimate Collecti
DTITLE=on [DISC 3]
DYEAR=2004
DGENRE=Blues
TTITLE0=Asante Sana
TTITLE1=Telephone Bill
TTITLE2=Lone Ranger
TTITLE3=Jet Plane
TTITLE4=Children Of The Universe
TTITLE5=Clone Information
TTITLE6=Family Clone
TTITLE7=Forget The Joneses
TTITLE8=Ain't Movin'
TTITLE9=Voodoo What You Do
TTITLE10=Johnny G Is Back
TTITLE11=Bow Wow
TTITLE12=My Funk
TTITLE13=It Takes 2
TTITLE14=Doing Wrong Woman
TTITLE15=What's Up With You
EXTD=
EXTT0=
EXTT1=
EXTT2=
EXTT3=
EXTT4=
EXTT5=
EXTT6=
EXTT7=
EXTT8=
EXTT9=
EXTT10=
EXTT11=
EXTT12=
EXTT13=
EXTT14=
EXTT15=
PLAYORDER=
